<?xml version="1.0" encoding="UTF-8"?>
<!DOCTYPE svg PUBLIC "-//W3C//DTD SVG 1.1//EN" "http://www.w3.org/Graphics/SVG/1.1/DTD/svg11.dtd">
<svg xmlns="http://www.w3.org/2000/svg" version="1.1" width="400px" height="225px" style="shape-rendering:geometricPrecision; text-rendering:geometricPrecision; image-rendering:optimizeQuality; fill-rule:evenodd; clip-rule:evenodd" xmlns:xlink="http://www.w3.org/1999/xlink">
<g><path style="opacity:0.876" fill="#050100" d="M 208.5,0.5 C 213.798,2.23437 218.632,4.90104 223,8.5C 222.797,4.36289 224.63,2.86289 228.5,4C 228.957,4.41395 229.291,4.91395 229.5,5.5C 228.408,8.45332 227.908,11.4533 228,14.5C 228.333,14.1667 228.667,13.8333 229,13.5C 230.441,14.2598 231.941,14.9264 233.5,15.5C 237.236,11.6873 240.736,7.6873 244,3.5C 249.086,9.88923 253.92,9.55589 258.5,2.5C 259.452,4.04533 259.785,5.71199 259.5,7.5C 266.827,7.05612 274.16,6.72278 281.5,6.5C 280.322,11.1906 278.322,15.524 275.5,19.5C 268.545,26.0779 262.045,33.0779 256,40.5C 255.517,41.448 255.351,42.448 255.5,43.5C 252.386,44.0913 249.886,45.758 248,48.5C 242.313,54.6856 236.813,61.0189 231.5,67.5C 230.533,69.6297 229.366,71.6297 228,73.5C 223.071,76.6983 219.571,81.0317 217.5,86.5C 214.002,87.1861 212.835,89.1861 214,92.5C 218.201,90.5312 222.534,88.8645 227,87.5C 244.098,86.408 261.264,86.408 278.5,87.5C 276.975,92.2141 274.641,96.5475 271.5,100.5C 270.271,101.281 268.938,101.781 267.5,102C 270.146,102.497 272.813,102.664 275.5,102.5C 275.703,104.39 275.037,105.89 273.5,107C 271.004,108.08 268.67,109.414 266.5,111C 257.597,114.647 248.597,117.98 239.5,121C 242.685,122.407 245.685,123.907 248.5,125.5C 248.351,126.552 248.517,127.552 249,128.5C 258.89,134.454 263.723,143.288 263.5,155C 262.912,159.174 261.246,162.841 258.5,166C 258.735,166.873 259.069,167.707 259.5,168.5C 257.167,170.667 254.833,172.833 252.5,175C 254.255,175.72 255.089,176.887 255,178.5C 248.244,181.13 241.744,184.13 235.5,187.5C 234.375,191.053 232.542,191.386 230,188.5C 227.766,190.7 225.266,192.533 222.5,194C 212.338,196.929 202.338,200.095 192.5,203.5C 191.861,207.527 191.028,211.527 190,215.5C 186.956,216.803 185.789,219.136 186.5,222.5C 183.396,223.029 181.063,222.029 179.5,219.5C 174.533,218.338 169.533,218.171 164.5,219C 162.821,222.068 160.821,222.234 158.5,219.5C 159.093,217.618 159.76,215.785 160.5,214C 155.352,214.441 150.185,215.274 145,216.5C 141.52,215.327 138.02,215.327 134.5,216.5C 132.084,216.125 129.75,215.459 127.5,214.5C 122.867,215.553 118.201,215.719 113.5,215C 111.14,213.635 109.473,211.635 108.5,209C 101.02,208.862 100.52,207.028 107,203.5C 106.608,199.075 108.108,195.575 111.5,193C 117.479,191.668 123.479,190.335 129.5,189C 132.095,186.787 134.928,184.953 138,183.5C 138.945,183.905 139.612,184.572 140,185.5C 145.233,182.867 150.733,181.033 156.5,180C 160.263,177.856 163.93,175.856 167.5,174C 169.937,162.486 172.103,150.986 174,139.5C 170.159,143.008 166.659,146.841 163.5,151C 144.587,154.604 133.921,146.771 131.5,127.5C 133.475,126.251 133.809,124.751 132.5,123C 134.669,121.672 135.002,120.006 133.5,118C 139.098,98.0664 143.764,77.8997 147.5,57.5C 147.392,56.5581 147.059,55.7247 146.5,55C 147.991,52.9031 148.991,50.5697 149.5,48C 149.167,47.6667 148.833,47.3333 148.5,47C 154.79,43.0436 160.124,38.0436 164.5,32C 168.348,32.8266 172.348,33.6599 176.5,34.5C 177.488,37.4501 178.321,40.4501 179,43.5C 179.925,44.0465 180.758,44.7132 181.5,45.5C 181.479,53.0301 181.479,60.5301 181.5,68C 182.167,68.6667 182.833,68.6667 183.5,68C 186.474,64.0734 189.641,60.2401 193,56.5C 194.617,46.7482 196.617,37.0815 199,27.5C 199.75,26.8742 200.584,26.3742 201.5,26C 200.376,25.1612 199.709,23.9945 199.5,22.5C 200.664,15.6718 202.331,9.00511 204.5,2.5C 205.167,3.83333 205.833,5.16667 206.5,6.5C 207.295,4.50494 207.961,2.50494 208.5,0.5 Z M 203.5,146.5 C 206.63,148.674 209.963,150.674 213.5,152.5C 210.058,156.279 206.058,159.279 201.5,161.5C 201.37,156.576 202.037,151.576 203.5,146.5 Z"/></g>
<g><path style="opacity:1" fill="#904c06" d="M 241.5,22.5 C 240.746,24.4459 239.412,25.2793 237.5,25C 238.823,24.1841 239.489,23.0174 239.5,21.5C 239.98,18.3486 241.646,16.0152 244.5,14.5C 245.5,14.8333 246.167,15.5 246.5,16.5C 244.179,17.966 242.179,19.7993 240.5,22C 240.728,22.3988 241.062,22.5654 241.5,22.5 Z"/></g>
<g><path style="opacity:1" fill="#dc7306" d="M 248.5,22.5 C 245.078,24.3935 244.744,25.7268 247.5,26.5C 247.389,27.1174 247.056,27.6174 246.5,28C 247.901,28.4101 249.234,28.9101 250.5,29.5C 249.687,30.6527 248.687,30.6527 247.5,29.5C 246.186,30.3128 245.019,31.3128 244,32.5C 243.51,31.2068 243.343,29.8734 243.5,28.5C 241.143,28.6633 238.81,28.4966 236.5,28C 235.167,27 235.167,26 236.5,25C 235.552,24.5172 234.552,24.3505 233.5,24.5C 235.588,23.7992 237.588,22.7992 239.5,21.5C 239.489,23.0174 238.823,24.1841 237.5,25C 239.412,25.2793 240.746,24.4459 241.5,22.5C 246.067,20.1062 250.234,17.1062 254,13.5C 254.492,14.549 254.326,15.549 253.5,16.5C 251.81,18.5193 250.144,20.5193 248.5,22.5 Z"/></g>
<g><path style="opacity:1" fill="#834404" d="M 248.5,22.5 C 249.954,24.2633 249.62,25.5967 247.5,26.5C 244.744,25.7268 245.078,24.3935 248.5,22.5 Z"/></g>
<g><path style="opacity:1" fill="#d57006" d="M 253.5,33.5 C 252.316,32.3121 252.316,31.1455 253.5,30C 252.552,29.5172 251.552,29.3505 250.5,29.5C 255.988,23.8535 261.988,18.6869 268.5,14C 269.332,13.3123 269.998,13.479 270.5,14.5C 265.584,19.3156 260.584,24.149 255.5,29C 256.167,29.3333 256.833,29.6667 257.5,30C 256.295,31.3756 254.962,32.5423 253.5,33.5 Z"/></g>
<g><path style="opacity:1" fill="#f47907" d="M 233.5,24.5 C 234.552,24.3505 235.552,24.5172 236.5,25C 235.167,26 235.167,27 236.5,28C 238.81,28.4966 241.143,28.6633 243.5,28.5C 243.343,29.8734 243.51,31.2068 244,32.5C 245.019,31.3128 246.186,30.3128 247.5,29.5C 248.687,30.6527 249.687,30.6527 250.5,29.5C 251.552,29.3505 252.552,29.5172 253.5,30C 252.316,31.1455 252.316,32.3121 253.5,33.5C 245.515,43.1181 236.848,52.1181 227.5,60.5C 218.636,59.2058 209.803,59.2058 201,60.5C 200.53,59.4232 200.697,58.4232 201.5,57.5C 206.393,49.1056 213.06,42.6056 221.5,38C 222.46,36.5806 223.293,35.0806 224,33.5C 227.622,30.8579 230.789,27.8579 233.5,24.5 Z"/></g>
<g><path style="opacity:1" fill="#834303" d="M 239.5,34.5 C 241.657,35.0533 241.49,36.0533 239,37.5C 238.53,36.4232 238.697,35.4232 239.5,34.5 Z"/></g>
<g><path style="opacity:1" fill="#f07106" d="M 168.5,48.5 C 168.369,49.3764 168.702,50.0431 169.5,50.5C 170.487,47.2317 170.82,43.8984 170.5,40.5C 171.117,40.6107 171.617,40.944 172,41.5C 172.26,45.4241 173.26,49.0907 175,52.5C 175.82,59.0137 175.653,65.3471 174.5,71.5C 173.442,70.3998 172.608,69.0664 172,67.5C 171.242,69.7695 171.409,71.9361 172.5,74C 166.33,76.7827 159.83,78.2827 153,78.5C 152.503,75.854 152.336,73.1873 152.5,70.5C 153.339,63.8024 154.505,57.1357 156,50.5C 160.041,47.6236 163.541,44.2902 166.5,40.5C 167.795,43.0119 168.461,45.6786 168.5,48.5 Z"/></g>
<g><path style="opacity:1" fill="#592c04" d="M 170.5,40.5 C 170.82,43.8984 170.487,47.2317 169.5,50.5C 168.702,50.0431 168.369,49.3764 168.5,48.5C 169.167,45.8333 169.833,43.1667 170.5,40.5 Z"/></g>
<g><path style="opacity:1" fill="#f06f06" d="M 201.5,57.5 C 200.697,58.4232 200.53,59.4232 201,60.5C 209.803,59.2058 218.636,59.2058 227.5,60.5C 221.762,69.5521 214.762,77.5521 206.5,84.5C 206.5,83.8333 206.167,83.5 205.5,83.5C 205.167,83.5 204.833,83.5 204.5,83.5C 196.84,83.203 189.506,82.203 182.5,80.5C 188.494,72.5108 194.827,64.8441 201.5,57.5 Z"/></g>
<g><path style="opacity:1" fill="#602b02" d="M 174.5,77.5 C 177.125,78.4657 177.125,79.4657 174.5,80.5C 175.247,82.2894 174.914,83.9561 173.5,85.5C 173.194,82.6146 173.527,79.9479 174.5,77.5 Z"/></g>
<g><path style="opacity:1" fill="#ea6306" d="M 174.5,71.5 C 174.5,73.5 174.5,75.5 174.5,77.5C 173.527,79.9479 173.194,82.6146 173.5,85.5C 173.338,87.5273 173.505,89.5273 174,91.5C 176.315,87.362 179.148,83.6953 182.5,80.5C 189.506,82.203 196.84,83.203 204.5,83.5C 203.878,84.6266 203.045,85.6266 202,86.5C 201.26,87.7494 201.427,88.7494 202.5,89.5C 202.5,89.8333 202.5,90.1667 202.5,90.5C 200.457,92.5086 198.457,94.5086 196.5,96.5C 195.778,96.0825 195.278,95.4158 195,94.5C 193.357,96.9768 191.524,99.3102 189.5,101.5C 189.957,102.298 190.624,102.631 191.5,102.5C 191.167,103.167 190.833,103.833 190.5,104.5C 189.167,105.5 187.833,106.5 186.5,107.5C 186.167,107.5 185.833,107.5 185.5,107.5C 185.158,106.662 184.492,106.328 183.5,106.5C 171,105.176 158.5,105.176 146,106.5C 145.517,105.552 145.351,104.552 145.5,103.5C 147.082,92.1916 149.416,81.1916 152.5,70.5C 152.336,73.1873 152.503,75.854 153,78.5C 159.83,78.2827 166.33,76.7827 172.5,74C 171.409,71.9361 171.242,69.7695 172,67.5C 172.608,69.0664 173.442,70.3998 174.5,71.5 Z"/></g>
<g><path style="opacity:1" fill="#2a1401" d="M 204.5,83.5 C 204.833,83.5 205.167,83.5 205.5,83.5C 204.5,85.5 203.5,87.5 202.5,89.5C 201.427,88.7494 201.26,87.7494 202,86.5C 203.045,85.6266 203.878,84.6266 204.5,83.5 Z"/></g>
<g><path style="opacity:1" fill="#803704" d="M 205.5,83.5 C 206.167,83.5 206.5,83.8333 206.5,84.5C 205.551,86.7772 204.218,88.7772 202.5,90.5C 202.5,90.1667 202.5,89.8333 202.5,89.5C 203.5,87.5 204.5,85.5 205.5,83.5 Z"/></g>
<g><path style="opacity:1" fill="#2a1402" d="M 169.5,89.5 C 170.788,91.0348 170.788,92.7015 169.5,94.5C 168.334,92.8327 168.334,91.166 169.5,89.5 Z"/></g>
<g><path style="opacity:1" fill="#a24405" d="M 237.5,94.5 C 247.325,93.3417 257.325,93.1751 267.5,94C 265.406,95.3515 263.073,95.8515 260.5,95.5C 253.018,94.508 245.352,94.1746 237.5,94.5 Z"/></g>
<g><path style="opacity:1" fill="#a34205" d="M 196.5,96.5 C 195.299,98.9095 193.633,100.909 191.5,102.5C 190.624,102.631 189.957,102.298 189.5,101.5C 191.524,99.3102 193.357,96.9768 195,94.5C 195.278,95.4158 195.778,96.0825 196.5,96.5 Z"/></g>
<g><path style="opacity:1" fill="#612703" d="M 254.5,99.5 C 255.043,99.56 255.376,99.8933 255.5,100.5C 254.007,101.141 253.007,102.141 252.5,103.5C 251.522,103.189 250.855,102.522 250.5,101.5C 251.949,100.828 253.282,100.161 254.5,99.5 Z"/></g>
<g><path style="opacity:1" fill="#e75706" d="M 145.5,103.5 C 145.351,104.552 145.517,105.552 146,106.5C 158.5,105.176 171,105.176 183.5,106.5C 182.2,107.601 181.7,108.934 182,110.5C 183.039,109.29 184.206,108.29 185.5,107.5C 185.833,107.5 186.167,107.5 186.5,107.5C 186.5,107.833 186.5,108.167 186.5,108.5C 185.007,111.368 183.34,114.034 181.5,116.5C 180.849,115.909 180.182,115.243 179.5,114.5C 178.289,115.274 178.289,116.107 179.5,117C 178.256,117.456 177.423,116.956 177,115.5C 175.855,116.636 174.688,117.636 173.5,118.5C 172.833,119.5 172.167,120.5 171.5,121.5C 168.666,123.649 168.999,124.649 172.5,124.5C 172.5,125.833 172.5,127.167 172.5,128.5C 171.842,127.602 171.176,126.602 170.5,125.5C 160.97,126.154 151.47,126.821 142,127.5C 141.505,125.527 141.338,123.527 141.5,121.5C 142.01,115.197 143.344,109.197 145.5,103.5 Z"/></g>
<g><path style="opacity:1" fill="#e55906" d="M 237.5,94.5 C 245.352,94.1746 253.018,94.508 260.5,95.5C 258.53,96.1616 256.53,96.8283 254.5,97.5C 253.227,98.2565 253.227,98.9232 254.5,99.5C 253.282,100.161 251.949,100.828 250.5,101.5C 250.855,102.522 251.522,103.189 252.5,103.5C 261.244,106.466 261.244,107.8 252.5,107.5C 252.5,108.5 252.5,109.5 252.5,110.5C 250.143,110.337 247.81,110.503 245.5,111C 237.086,113.151 228.753,115.484 220.5,118C 219.692,118.308 219.025,118.808 218.5,119.5C 220.319,120.32 221.986,121.32 223.5,122.5C 224.598,123.397 224.598,124.23 223.5,125C 224.833,125.333 226.167,125.667 227.5,126C 215.833,126.667 204.167,126.667 192.5,126C 191.78,123.878 190.613,123.378 189,124.5C 188.536,123.906 188.369,123.239 188.5,122.5C 188.167,121.833 187.833,121.167 187.5,120.5C 187.343,119.127 187.51,117.793 188,116.5C 201.528,102.486 218.028,95.1528 237.5,94.5 Z"/></g>
<g><path style="opacity:1" fill="#552102" d="M 183.5,106.5 C 184.492,106.328 185.158,106.662 185.5,107.5C 184.206,108.29 183.039,109.29 182,110.5C 181.7,108.934 182.2,107.601 183.5,106.5 Z"/></g>
<g><path style="opacity:1" fill="#672803" d="M 190.5,104.5 C 190.271,106.433 189.438,108.1 188,109.5C 187.617,108.944 187.117,108.611 186.5,108.5C 186.5,108.167 186.5,107.833 186.5,107.5C 187.833,106.5 189.167,105.5 190.5,104.5 Z"/></g>
<g><path style="opacity:1" fill="#c34605" d="M 181.5,116.5 C 179.217,119.956 176.717,123.29 174,126.5C 173.802,128.382 173.302,130.048 172.5,131.5C 172.5,130.5 172.5,129.5 172.5,128.5C 172.5,127.167 172.5,125.833 172.5,124.5C 168.999,124.649 168.666,123.649 171.5,121.5C 172.329,122.332 173.162,121.999 174,120.5C 174.692,119.563 174.525,118.897 173.5,118.5C 174.688,117.636 175.855,116.636 177,115.5C 177.423,116.956 178.256,117.456 179.5,117C 178.289,116.107 178.289,115.274 179.5,114.5C 180.182,115.243 180.849,115.909 181.5,116.5 Z"/></g>
<g><path style="opacity:1" fill="#3a1601" d="M 173.5,118.5 C 174.525,118.897 174.692,119.563 174,120.5C 173.162,121.999 172.329,122.332 171.5,121.5C 172.167,120.5 172.833,119.5 173.5,118.5 Z"/></g>
<g><path style="opacity:1" fill="#762a04" d="M 187.5,120.5 C 187.833,121.167 188.167,121.833 188.5,122.5C 187.596,123.209 187.263,124.209 187.5,125.5C 185.078,123.714 185.078,122.048 187.5,120.5 Z"/></g>
<g><path style="opacity:1" fill="#dd4a05" d="M 141.5,121.5 C 141.338,123.527 141.505,125.527 142,127.5C 151.47,126.821 160.97,126.154 170.5,125.5C 171.176,126.602 171.842,127.602 172.5,128.5C 172.5,129.5 172.5,130.5 172.5,131.5C 170.46,133.195 168.626,135.195 167,137.5C 166.667,137.167 166.333,136.833 166,136.5C 163.554,142.644 159.054,145.477 152.5,145C 140.621,141.073 136.954,133.239 141.5,121.5 Z"/></g>
<g><path style="opacity:1" fill="#752704" d="M 199.5,135.5 C 197.901,135.768 196.568,135.434 195.5,134.5C 197.735,133.752 197.402,132.919 194.5,132C 197.572,131.2 199.239,132.367 199.5,135.5 Z"/></g>
<g><path style="opacity:1" fill="#dd4805" d="M 188.5,122.5 C 188.369,123.239 188.536,123.906 189,124.5C 190.613,123.378 191.78,123.878 192.5,126C 204.167,126.667 215.833,126.667 227.5,126C 226.167,125.667 224.833,125.333 223.5,125C 224.598,124.23 224.598,123.397 223.5,122.5C 235.033,126.2 244.866,132.533 253,141.5C 253.395,144.207 253.895,146.873 254.5,149.5C 245.827,149.334 237.16,149.5 228.5,150C 227.756,151.039 226.756,151.539 225.5,151.5C 226.308,149.7 225.808,148.033 224,146.5C 223.536,147.094 223.369,147.761 223.5,148.5C 218.544,147.018 213.877,145.018 209.5,142.5C 213.043,141.559 213.376,139.892 210.5,137.5C 209.817,137.863 209.15,138.196 208.5,138.5C 206.545,139.323 204.545,139.49 202.5,139C 200.574,138.578 199.574,137.411 199.5,135.5C 199.239,132.367 197.572,131.2 194.5,132C 197.402,132.919 197.735,133.752 195.5,134.5C 191.412,132.746 188.745,129.746 187.5,125.5C 187.263,124.209 187.596,123.209 188.5,122.5 Z"/></g>
<g><path style="opacity:1" fill="#792704" d="M 209.5,142.5 C 209.125,141.207 208.792,139.874 208.5,138.5C 209.15,138.196 209.817,137.863 210.5,137.5C 213.376,139.892 213.043,141.559 209.5,142.5 Z"/></g>
<g><path style="opacity:1" fill="#882903" d="M 225.5,151.5 C 225.5,152.167 225.167,152.5 224.5,152.5C 224.567,151.041 224.234,149.708 223.5,148.5C 223.369,147.761 223.536,147.094 224,146.5C 225.808,148.033 226.308,149.7 225.5,151.5 Z"/></g>
<g><path style="opacity:1" fill="#752204" d="M 255.5,152.5 C 256.473,154.068 256.64,155.735 256,157.5C 255.617,156.944 255.117,156.611 254.5,156.5C 254.232,154.901 254.566,153.568 255.5,152.5 Z"/></g>
<g><path style="opacity:1" fill="#d93b05" d="M 254.5,149.5 C 255.11,150.391 255.443,151.391 255.5,152.5C 254.566,153.568 254.232,154.901 254.5,156.5C 253.044,159.614 251.878,162.948 251,166.5C 249.933,167.191 248.766,167.691 247.5,168C 247.957,168.414 248.291,168.914 248.5,169.5C 246.223,170.421 243.89,171.087 241.5,171.5C 238.92,169.984 236.92,170.651 235.5,173.5C 234.391,173.557 233.391,173.89 232.5,174.5C 232.167,174.5 231.833,174.5 231.5,174.5C 218.579,173.52 205.579,173.186 192.5,173.5C 200.653,169.823 208.653,165.656 216.5,161C 219.399,158.271 222.066,155.438 224.5,152.5C 225.167,152.5 225.5,152.167 225.5,151.5C 226.756,151.539 227.756,151.039 228.5,150C 237.16,149.5 245.827,149.334 254.5,149.5 Z"/></g>
<g><path style="opacity:1" fill="#301001" d="M 247.5,160.5 C 249.028,160.517 249.528,161.184 249,162.5C 247.26,164.954 245.093,166.454 242.5,167C 244.382,164.957 246.049,162.791 247.5,160.5 Z"/></g>
<g><path style="opacity:1" fill="#240c00" d="M 235.5,173.5 C 234.322,176.217 233.322,176.55 232.5,174.5C 233.391,173.89 234.391,173.557 235.5,173.5 Z"/></g>
<g><path style="opacity:1" fill="#a12904" d="M 241.5,171.5 C 240.567,173.74 238.401,175.407 235,176.5C 234.383,177.449 234.549,178.282 235.5,179C 234.207,179.49 232.873,179.657 231.5,179.5C 231.918,178.778 232.584,178.278 233.5,178C 232.027,177.29 231.36,176.124 231.5,174.5C 231.833,174.5 232.167,174.5 232.5,174.5C 233.322,176.55 234.322,176.217 235.5,173.5C 236.92,170.651 238.92,169.984 241.5,171.5 Z"/></g>
<g><path style="opacity:1" fill="#4f1402" d="M 226.5,178.5 C 227.332,179.329 226.999,180.162 225.5,181C 223.833,181.833 222.167,182.667 220.5,183.5C 219.893,183.376 219.56,183.043 219.5,182.5C 221.833,181.167 224.167,179.833 226.5,178.5 Z"/></g>
<g><path style="opacity:1" fill="#d63304" d="M 192.5,173.5 C 205.579,173.186 218.579,173.52 231.5,174.5C 231.36,176.124 232.027,177.29 233.5,178C 232.584,178.278 231.918,178.778 231.5,179.5C 229.857,179.52 228.524,178.853 227.5,177.5C 226.893,177.624 226.56,177.957 226.5,178.5C 224.167,179.833 221.833,181.167 219.5,182.5C 218.624,182.369 217.957,182.702 217.5,183.5C 218.853,184.524 219.52,185.857 219.5,187.5C 213.029,188.208 206.696,190.208 200.5,193.5C 188.674,192.669 176.674,192.169 164.5,192C 159.761,190.949 155.094,190.115 150.5,189.5C 164.191,183.599 178.191,178.266 192.5,173.5 Z"/></g>
<g><path style="opacity:1" fill="#a32704" d="M 226.5,178.5 C 226.56,177.957 226.893,177.624 227.5,177.5C 228.524,178.853 229.857,179.52 231.5,179.5C 227.842,182.457 223.842,185.124 219.5,187.5C 219.52,185.857 218.853,184.524 217.5,183.5C 217.957,182.702 218.624,182.369 219.5,182.5C 219.56,183.043 219.893,183.376 220.5,183.5C 222.167,182.667 223.833,181.833 225.5,181C 226.999,180.162 227.332,179.329 226.5,178.5 Z"/></g>
<g><path style="opacity:1" fill="#ce2d04" d="M 150.5,189.5 C 155.094,190.115 159.761,190.949 164.5,192C 176.674,192.169 188.674,192.669 200.5,193.5C 187.495,198.891 174.161,203.391 160.5,207C 156.152,207.465 151.819,207.965 147.5,208.5C 135.919,208.762 135.919,207.595 147.5,205C 147.833,204.667 148.167,204.333 148.5,204C 143.531,203.66 138.865,204.494 134.5,206.5C 128.579,207.981 122.579,208.481 116.5,208C 124.362,205.244 132.362,202.91 140.5,201C 135.821,201.072 131.154,201.572 126.5,202.5C 126.082,201.778 125.416,201.278 124.5,201C 127.555,200.96 129.555,200.127 130.5,198.5C 130.158,197.662 129.492,197.328 128.5,197.5C 133.941,194.732 139.607,192.232 145.5,190C 147.134,189.506 148.801,189.34 150.5,189.5 Z"/></g>
<g><path style="opacity:1" fill="#841d04" d="M 128.5,197.5 C 129.492,197.328 130.158,197.662 130.5,198.5C 125.341,199.532 120.341,199.532 115.5,198.5C 119.824,198.073 124.158,197.739 128.5,197.5 Z"/></g>
<g><path style="opacity:1" fill="#240a00" d="M 115.5,198.5 C 120.341,199.532 125.341,199.532 130.5,198.5C 129.555,200.127 127.555,200.96 124.5,201C 125.416,201.278 126.082,201.778 126.5,202.5C 122.464,201.777 118.464,200.777 114.5,199.5C 114.624,198.893 114.957,198.56 115.5,198.5 Z"/></g>
<g><path style="opacity:1" fill="#951f04" d="M 147.5,208.5 C 142.652,209.814 137.652,209.814 132.5,208.5C 133.376,207.749 134.376,207.249 135.5,207C 135.272,206.601 134.938,206.435 134.5,206.5C 138.865,204.494 143.531,203.66 148.5,204C 148.167,204.333 147.833,204.667 147.5,205C 135.919,207.595 135.919,208.762 147.5,208.5 Z"/></g>
</svg>
